<svg width="24" height="24" viewBox="0 0 24 24" fill="none" xmlns="http://www.w3.org/2000/svg">
<path d="M11.7608 20.8542C9.58785 19.5165 7.5684 17.9441 5.73884 16.1652C4.44942 14.8808 3.46933 13.3197 2.87284 11.6002C1.79984 8.25024 3.05384 4.42124 6.57084 3.28824C7.48263 2.99409 8.45175 2.9234 9.39657 3.08212C10.3414 3.24083 11.2342 3.62431 11.9998 4.20024C12.7649 3.62627 13.6563 3.24395 14.5995 3.08528C15.5426 2.9266 16.5101 2.9962 17.4208 3.28824C20.9378 4.42124 22.1998 8.25024 21.1278 11.6002C20.532 13.3215 19.5519 14.8844 18.2618 16.1702C16.432 17.9473 14.4126 19.5181 12.2398 20.8542L12.0048 21.0002L11.7608 20.8542Z" stroke="#1D242C" stroke-width="1.5" stroke-miterlimit="10" stroke-linecap="round" stroke-linejoin="round"/>
</svg>
